<svg width="1747" height="542" viewBox="0 0 1747 542" fill="none" xmlns="http://www.w3.org/2000/svg">
<path d="M1141.07 459.246C1116.07 459.246 1096.75 450.634 1084.36 442.233V423.749C1102.63 438.032 1122.79 444.123 1140.65 444.123C1148.42 444.123 1158.29 441.393 1158.29 432.361C1158.29 419.759 1138.76 416.188 1125.1 413.038C1107.46 408.837 1084.78 401.065 1084.78 380.692C1084.78 361.789 1103.47 352.547 1121.95 352.547C1142.75 352.547 1162.49 359.688 1174.46 370.61V388.883C1159.97 374.811 1139.39 367.88 1122.16 367.88C1114.18 367.88 1103.47 370.61 1103.47 379.852C1103.47 391.194 1122.37 394.764 1135.18 397.705C1156.61 402.536 1177.4 409.257 1177.4 430.891C1177.4 450.424 1159.76 459.246 1141.07 459.246Z" fill="white"/>
<path d="M1016.98 369.327C996.183 369.327 980.43 385.079 980.43 406.923C980.43 426.667 989.462 441.999 1010.05 441.999C1026.43 441.999 1041.76 426.877 1050.37 415.325V385.499C1040.92 376.468 1030.42 369.327 1016.98 369.327ZM1003.95 459.012C974.339 459.012 959.637 435.908 959.637 407.763C959.637 375.208 981.901 352.314 1012.78 352.314C1028.53 352.314 1040.29 359.035 1050.37 368.907V308.836H1070.12V456.282H1050.37V433.388C1040.71 445.57 1023.07 459.012 1003.95 459.012Z" fill="white"/>
<path d="M912.29 352.312C940.855 352.312 947.787 384.868 947.787 414.483V456.281H927.833V415.324C927.833 392.22 924.052 370.166 904.309 370.166C890.866 370.166 875.324 385.918 864.402 398.941V456.281H844.238V355.043H864.402V380.878C876.164 367.645 892.547 352.312 912.29 352.312Z" fill="white"/>
<path d="M804.303 456.287V355.26H824.466V456.287H804.303ZM829.507 319.763C829.507 328.165 822.576 334.886 814.384 334.886C805.983 334.886 799.262 328.165 799.262 319.763C799.262 311.362 805.983 304.641 814.384 304.641C822.576 304.641 829.507 311.362 829.507 319.763Z" fill="white"/>
<path d="M762.873 309.25H783.037V456.276H761.823V352.308L710.994 459.216H701.543L650.714 352.728V456.276H629.5V309.25H649.664L706.584 428.761L762.873 309.25Z" fill="white"/>
<path d="M1627.84 146.057C1609.78 146.057 1595.28 158.449 1591.29 174.832C1597.8 178.402 1609.36 181.763 1622.17 181.763C1633.72 181.763 1650.73 175.252 1650.73 162.019C1650.73 150.047 1637.71 146.057 1627.84 146.057ZM1666.49 201.926L1673 217.259C1660.4 229.441 1644.64 236.793 1625.11 236.793C1595.49 236.793 1569.45 217.889 1569.45 185.754C1569.45 153.618 1594.86 130.094 1626.58 130.094C1646.11 130.094 1670.69 138.915 1670.69 162.019C1670.69 184.493 1646.95 196.255 1625.32 196.255C1611.67 196.255 1597.59 192.265 1589.4 189.114C1591.5 208.228 1606.84 219.78 1625.74 219.78C1641.49 219.78 1654.09 214.529 1666.49 201.926Z" fill="white"/>
<path d="M1548.72 132.836H1569.72L1519.1 236.804H1509.23L1458.19 132.836H1479.83L1514.48 207.399L1548.72 132.836Z" fill="white"/>
<path d="M1425.19 233.858V132.83H1445.35V233.858H1425.19ZM1450.39 97.3336C1450.39 105.735 1443.46 112.456 1435.27 112.456C1426.87 112.456 1420.14 105.735 1420.14 97.3336C1420.14 88.9321 1426.87 82.2109 1435.27 82.2109C1443.46 82.2109 1450.39 88.9321 1450.39 97.3336Z" fill="white"/>
<path d="M1356.03 104.25H1376.19V132.815H1410.43V149.408H1376.19V233.843H1356.03V149.408H1332.92V132.815H1356.03V104.25Z" fill="white"/>
<path d="M1317.68 129.875H1324.19V149.829H1315.37C1293.94 150.039 1277.98 161.591 1266.22 173.983V233.843H1246.05V132.816H1266.22V156.55C1279.45 142.057 1296.46 129.875 1317.68 129.875Z" fill="white"/>
<path d="M1176.12 219.149C1197.55 219.149 1212.88 204.657 1212.88 183.443C1212.88 161.809 1196.92 147.947 1176.12 147.947C1154.7 147.947 1139.16 162.229 1139.16 183.443C1139.16 205.287 1155.33 219.149 1176.12 219.149ZM1176.12 130.094C1207 130.094 1231.99 152.148 1231.99 183.443C1231.99 214.739 1207.21 236.793 1176.12 236.793C1145.25 236.793 1120.04 214.739 1120.04 183.443C1120.04 152.568 1144.62 130.094 1176.12 130.094Z" fill="white"/>
<path d="M1054.08 219.771C1074.88 219.771 1090.63 203.808 1090.63 181.964C1090.63 162.431 1081.6 146.888 1061.02 146.888C1044.63 146.888 1029.3 162.011 1020.69 173.773V203.388C1030.14 212.42 1040.64 219.771 1054.08 219.771ZM1067.11 129.875C1096.93 129.875 1111.42 152.979 1111.42 181.124C1111.42 213.68 1089.16 236.574 1058.29 236.574C1042.53 236.574 1030.98 229.853 1020.69 220.191V280.051H1000.95V132.816H1020.69V155.5C1030.35 143.317 1047.99 129.875 1067.11 129.875Z" fill="white"/>
<path d="M929.581 219.771C950.374 219.771 966.127 203.808 966.127 181.964C966.127 162.431 957.096 146.888 936.512 146.888C920.129 146.888 904.796 162.011 896.185 173.773V203.388C905.637 212.42 916.138 219.771 929.581 219.771ZM942.603 129.875C972.428 129.875 986.921 152.979 986.921 181.124C986.921 213.68 964.657 236.574 933.781 236.574C918.029 236.574 906.477 229.853 896.185 220.191V280.051H876.441V132.816H896.185V155.5C905.847 143.317 923.49 129.875 942.603 129.875Z" fill="white"/>
<path d="M791.281 236.585C762.505 236.585 755.574 209.911 755.574 180.296V132.617H775.738V177.985C775.738 201.089 779.518 218.732 799.052 218.732C812.704 218.732 828.247 202.98 839.169 189.957V132.617H859.122V233.855H839.169V208.02C827.197 221.463 810.814 236.585 791.281 236.585Z" fill="white"/>
<path d="M690.624 236.578C667.94 236.578 640.845 224.396 626.562 209.903L628.243 189.11C652.817 212.844 678.022 218.095 692.724 218.095C706.587 218.095 721.499 212.004 721.499 197.511C721.499 178.818 703.436 175.457 677.601 169.786C649.036 163.695 628.243 152.353 628.243 124.628C628.243 99.6338 648.616 83.4609 679.282 83.4609C707.007 83.4609 727.59 96.0632 742.923 108.875L738.092 128.199C722.759 113.916 700.496 102.574 676.971 102.574C660.168 102.574 649.246 110.346 649.246 123.368C649.246 142.901 674.451 148.362 689.364 151.723C719.609 158.654 742.923 166.636 742.923 196.041C742.923 220.195 722.339 236.578 690.624 236.578Z" fill="white"/>
<path d="M282.23 455.535C275.586 462.182 267.692 467.48 258.99 471.129C250.051 474.877 240.441 476.808 230.733 476.808C216.719 476.782 203.007 472.767 191.234 465.242C179.461 457.716 170.123 446.998 164.334 434.364C152.72 432.338 141.673 427.895 131.922 421.331C122.17 414.767 113.936 406.23 107.763 396.284C105.53 392.686 103.586 388.934 101.941 385.062C120.006 393.309 139.826 397.61 159.935 397.61C203.599 397.61 235.382 381.693 259.875 358.476C268.07 350.707 275.456 342.1 282.23 333.109V455.535Z" fill="white"/>
<path d="M469.17 150.222C456.129 146.308 442.481 144.295 428.697 144.295C385.01 144.295 353.212 160.169 328.706 183.326C321.504 190.132 314.926 197.583 308.84 205.372V80.5467C320.151 70.5868 334.773 65.0507 349.95 65C362.926 65.0153 375.577 69.0104 386.15 76.4325C396.724 83.8545 404.698 94.3363 408.969 106.427C419.612 107.453 429.896 110.774 439.095 116.155C448.294 121.536 456.182 128.846 462.201 137.567C464.955 141.557 467.287 145.798 469.17 150.222Z" fill="white"/>
<path fill-rule="evenodd" clip-rule="evenodd" d="M307.039 455.533V294.77C309.285 290.999 311.474 287.269 313.619 283.613L314.447 282.232C330.057 255.692 343.671 232.834 361.351 216.1C377.911 200.47 397.784 190.48 427.105 190.48C449.711 190.48 471.391 198.968 487.376 214.077C503.361 229.186 512.341 249.678 512.341 271.045C512.349 288.802 506.15 306.065 494.708 320.149C483.265 334.233 467.22 344.349 449.068 348.924C430.915 353.5 411.671 352.279 394.329 345.45C377.503 338.825 363.381 327.283 354.017 312.533V377.135C362.219 382.184 371.014 386.387 380.254 389.648C401.271 397.065 423.922 399.374 446.129 396.363C460.9 394.36 475.159 390.046 488.339 383.643C486.569 388.032 484.416 392.275 481.897 396.321C475.711 406.261 467.458 414.792 457.685 421.352C447.911 427.912 436.839 432.351 425.199 434.377C419.397 447.002 410.038 457.713 398.239 465.234C386.439 472.754 372.697 476.767 358.651 476.792C348.921 476.793 339.29 474.863 330.331 471.117C321.609 467.47 313.697 462.176 307.039 455.533Z" fill="white"/>
<path fill-rule="evenodd" clip-rule="evenodd" d="M272.7 258.491C275.635 253.489 278.651 248.35 281.784 243.155V80.5816C270.454 70.6018 255.805 65.0547 240.603 65.0039C227.604 65.0192 214.931 69.0223 204.339 76.4592C193.747 83.896 185.759 94.3987 181.481 106.514C170.82 107.542 160.517 110.869 151.302 116.261C142.088 121.653 134.186 128.977 128.156 137.716C125.569 141.465 123.354 145.435 121.533 149.57C127.628 147.881 133.862 146.599 140.19 145.741C162.397 142.729 185.048 145.038 206.065 152.456C215.275 155.706 224.041 159.892 232.22 164.918V229.444C224.814 217.84 214.425 208.18 202.005 201.371C189.057 194.271 174.358 190.52 159.389 190.494C144.419 190.469 129.707 194.17 116.732 201.226C103.756 208.282 92.9754 218.443 85.474 230.687C77.9727 242.932 74.0154 256.827 74 270.976C73.9847 285.125 77.912 299.029 85.3868 311.288C92.8617 323.546 103.62 333.728 116.58 340.809C129.541 347.89 144.245 351.62 159.215 351.623C188.511 351.623 208.408 341.633 224.968 326.004C242.649 309.269 256.262 286.412 271.872 259.872L272.7 258.491Z" fill="white"/>
</svg>
